<svg width="107" height="73" viewBox="0 0 107 73" fill="none" xmlns="http://www.w3.org/2000/svg">
<path fill-rule="evenodd" clip-rule="evenodd" d="M71.3379 65.8621C80.091 67.3212 89.1271 68.1709 97.0981 72.3731C97.5735 72.6217 98.1608 72.4413 98.413 71.9653C98.6613 71.4888 98.4817 70.9004 98.0068 70.6479C89.8494 66.3484 80.6147 65.4312 71.658 63.9392C71.1288 63.8484 70.6257 64.21 70.5386 64.7409C70.4476 65.2712 70.8087 65.7713 71.3379 65.8621Z" fill="#2379BC"/>
<path fill-rule="evenodd" clip-rule="evenodd" d="M72.3661 52.9712C75.4623 50.8354 78.7189 49.3683 82.4638 48.9437C82.9987 48.8835 83.3815 48.4004 83.3238 47.8663C83.2622 47.3316 82.7787 46.9468 82.2476 47.0077C78.1754 47.4689 74.6322 49.0453 71.2662 51.366C70.8223 51.6707 70.7086 52.2777 71.0149 52.7212C71.3174 53.1637 71.926 53.2765 72.3661 52.9712Z" fill="#2379BC"/>
<path fill-rule="evenodd" clip-rule="evenodd" d="M68.6592 24.3285C70.5267 20.1944 73.4777 17.1718 77.6126 15.2736C78.1001 15.0495 78.3158 14.4707 78.0906 13.9817C77.8692 13.4932 77.2909 13.2781 76.8034 13.5021C72.2271 15.6043 68.9555 18.9482 66.8877 23.5255C66.665 24.0151 66.8853 24.5936 67.3725 24.8147C67.8634 25.0368 68.4404 24.8187 68.6592 24.3285Z" fill="#2379BC"/>
<path fill-rule="evenodd" clip-rule="evenodd" d="M26.2281 12.3342C25.356 13.1091 24.5513 13.9633 23.8379 14.8931C23.5199 15.307 22.9375 16.1998 22.7517 17.01C22.5507 17.8727 22.7425 18.6519 23.4499 19.1483C24.3895 19.8069 25.2058 19.868 25.8738 19.6451C26.5169 19.4314 27.0701 18.9103 27.4785 18.1644C28.2583 16.7386 28.5004 14.4247 28.3904 13.0691C29.3044 12.358 30.2847 11.7346 31.3147 11.2029C38.9869 7.24318 48.9513 10.5194 55.7677 19.036C58.1531 22.0178 58.7053 27.6469 58.5612 33.6153C58.3379 42.9085 56.2764 53.0308 55.7671 56.0098C55.643 56.7457 55.6501 57.1939 55.6761 57.287C55.796 57.7433 56.0997 57.9006 56.317 57.9747C56.6322 58.0785 56.899 58.0534 57.1222 57.9749C57.4244 57.8666 57.6925 57.6386 57.8574 57.2514C57.9467 57.0373 58.0061 56.73 58.0452 56.399C58.07 56.169 58.0593 55.9124 58.1287 55.755C58.5782 54.7472 59.0858 53.7729 59.5867 52.7901C61.2618 49.4853 63.2525 46.4481 65.412 43.4388C72.2729 33.8765 79.0396 23.7045 89.0016 17.0913C89.4483 16.7946 89.5735 16.1895 89.2758 15.741C88.9819 15.293 88.3786 15.1704 87.928 15.467C77.7669 22.2105 70.831 32.5502 63.8332 42.3017C61.9967 44.8616 60.279 47.4424 58.7666 50.1822C59.6056 45.0749 60.5699 37.9773 60.5249 31.5699C60.4854 25.8714 59.6029 20.715 57.2842 17.8164C49.8173 8.48656 38.8269 5.13245 30.4253 9.47085C29.5266 9.93535 28.6582 10.4632 27.836 11.0527C24.8686 3.26003 16.7313 -0.849633 8.68579 1.53395C8.16922 1.68619 7.87615 2.2288 8.02688 2.74425C8.18147 3.26025 8.72099 3.55494 9.23756 3.4027C16.4876 1.25498 23.8136 5.13016 26.2281 12.3342ZM26.443 14.8326C26.0685 15.2298 25.7147 15.6465 25.378 16.0813C25.1995 16.315 24.8837 16.7682 24.7119 17.2312C24.6729 17.3398 24.6442 17.5144 24.6327 17.5955C24.8798 17.7644 25.0787 17.8572 25.2603 17.796C25.4869 17.7211 25.6299 17.4894 25.773 17.2283C26.1331 16.5731 26.3481 15.6675 26.443 14.8326Z" fill="#2379BC"/>
</svg>
